<svg id="Capa_1" data-name="Capa 1" xmlns="http://www.w3.org/2000/svg" viewBox="0 0 379 61"><title>Mesa de trabajo 1</title><path d="M15.08.43h11l16.45,46.5H32l-3.07-9.56H11.8L8.64,46.93H-1.52Zm-.64,28.93H26.35l-5.87-18.3Z"/><path d="M66.82,11.74l.77,0V21q-.85-.09-1.51-.13l-1.07,0q-5.43,0-7.29,3.53a13.74,13.74,0,0,0-1,6.12V46.93H47.62V12.54H56.2v6a19,19,0,0,1,3.63-4.7,9.88,9.88,0,0,1,6.56-2.11Z"/><path d="M92.11,13.75a13.86,13.86,0,0,1,3.16,3.95V12.61h8.68v48H95V42.67a9.56,9.56,0,0,1-3.45,3.71A11.93,11.93,0,0,1,84.91,48a13.06,13.06,0,0,1-10.16-4.77q-4.2-4.77-4.2-12.73,0-8.59,4.21-13.74a12.94,12.94,0,0,1,10.4-5.15A10.79,10.79,0,0,1,92.11,13.75ZM94,36.33a15.27,15.27,0,0,0,1.26-6.64A14.18,14.18,0,0,0,94.22,24a6.83,6.83,0,0,0-6.77-4.49A6.64,6.64,0,0,0,82,22.17q-2.07,2.62-2.07,8A15.32,15.32,0,0,0,80.85,36a6.52,6.52,0,0,0,6.58,4.33A6.8,6.8,0,0,0,94,36.33Z"/><path d="M121.29,12.54V33.27a10.9,10.9,0,0,0,.69,4.42q1.22,2.62,4.8,2.62,4.58,0,6.28-3.72a13.54,13.54,0,0,0,.88-5.33V12.54h9.12V46.93h-8.74V42.08q-.13.16-.63.95a6.32,6.32,0,0,1-1.2,1.39A12.48,12.48,0,0,1,128.42,47a13.86,13.86,0,0,1-4.61.69q-7.61,0-10.26-5.49-1.48-3-1.48-8.93V12.54Z"/><path d="M161,8.44h-9.12V.15H161Zm-9.12,4.1H161V46.93h-9.12Z"/><path d="M166.22,19.27v-6.4H171V3.27h8.9v9.59h5.58v6.4h-5.58V37.44q0,2.11.54,2.63t3.28.52l.87,0,.9,0v6.72l-4.26.16q-6.37.22-8.71-2.21A6.58,6.58,0,0,1,171,40.43V19.27Z"/><path d="M213.67,13.24a14,14,0,0,1,5.94,5.09,16.9,16.9,0,0,1,2.74,7.11,43.91,43.91,0,0,1,.3,6.82h-25q.21,5.17,3.6,7.26a9.13,9.13,0,0,0,5,1.29A7,7,0,0,0,213,36.87h9.18a11.23,11.23,0,0,1-3.33,6.21q-4.62,5-12.94,5a18.74,18.74,0,0,1-12.11-4.23q-5.25-4.23-5.25-13.77,0-8.94,4.74-13.7a16.58,16.58,0,0,1,12.3-4.77A19.58,19.58,0,0,1,213.67,13.24ZM200.22,21a9.34,9.34,0,0,0-2.4,5.32h15.49a7.5,7.5,0,0,0-2.4-5.43A7.88,7.88,0,0,0,205.59,19,7.13,7.13,0,0,0,200.22,21Z"/><path d="M247.77,24.88a8,8,0,0,0-1.3-3.47,5.44,5.44,0,0,0-4.71-2.08q-4.55,0-6.23,4.51a18.73,18.73,0,0,0-.89,6.36,17.22,17.22,0,0,0,.89,6.07,6,6,0,0,0,6.07,4.29q3.16,0,4.49-1.7a8.47,8.47,0,0,0,1.61-4.42h9.18a15,15,0,0,1-3,7.76q-4.23,5.9-12.54,5.9t-12.22-4.92q-3.92-4.92-3.92-12.76,0-8.85,4.33-13.77t11.94-4.92a18,18,0,0,1,10.6,2.9q4.12,2.9,4.88,10.25Z"/><path d="M259.6,19.27v-6.4h4.8V3.27h8.9v9.59h5.58v6.4h-5.58V37.44q0,2.11.54,2.63t3.28.52l.87,0,.9,0v6.72l-4.26.16q-6.37.22-8.71-2.21a6.58,6.58,0,0,1-1.51-4.76V19.27Z"/><path d="M293.61,12.54V33.27a10.9,10.9,0,0,0,.69,4.42q1.22,2.62,4.8,2.62,4.58,0,6.28-3.72a13.54,13.54,0,0,0,.88-5.33V12.54h9.12V46.93h-8.74V42.08q-.13.16-.63.95a6.32,6.32,0,0,1-1.2,1.39A12.48,12.48,0,0,1,300.74,47a13.86,13.86,0,0,1-4.61.69q-7.61,0-10.26-5.49-1.48-3-1.48-8.93V12.54Z"/><path d="M343.22,11.74l.77,0V21q-.85-.09-1.51-.13l-1.07,0q-5.43,0-7.29,3.53a13.74,13.74,0,0,0-1,6.12V46.93H324V12.54h8.58v6a19,19,0,0,1,3.63-4.7,9.88,9.88,0,0,1,6.56-2.11Z"/><path d="M362.88,26a14.19,14.19,0,0,0,3.59-.79,2.7,2.7,0,0,0,1.94-2.56,3,3,0,0,0-1.49-2.92,9.4,9.4,0,0,0-4.37-.8q-3.23,0-4.57,1.58a6.51,6.51,0,0,0-1.28,3.15H348a13.15,13.15,0,0,1,2.53-7.41q3.58-4.54,12.29-4.54A21.92,21.92,0,0,1,372.94,14q4.4,2.24,4.4,8.46V38.19q0,1.64.06,4a5,5,0,0,0,.54,2.4,3.22,3.22,0,0,0,1.33,1v1.33h-9.78a10,10,0,0,1-.57-2q-.16-.91-.25-2.08a18.56,18.56,0,0,1-4.32,3.44,13,13,0,0,1-6.6,1.67A11.39,11.39,0,0,1,350,45.34a9.48,9.48,0,0,1-3.06-7.56q0-6.34,4.93-9.18a22,22,0,0,1,7.95-2.21Zm5.5,4.2a9.94,9.94,0,0,1-1.74.87,14.77,14.77,0,0,1-2.41.62l-2,.38A13.48,13.48,0,0,0,358,33.3a4.11,4.11,0,0,0-2.12,3.82,4,4,0,0,0,1.3,3.33,4.93,4.93,0,0,0,3.16,1,9.4,9.4,0,0,0,5.43-1.7q2.48-1.7,2.58-6.22Z"/></svg>